<?xml version="1.0" standalone="no"?>
<!DOCTYPE svg PUBLIC "-//W3C//DTD SVG 20010904//EN"
 "http://www.w3.org/TR/2001/REC-SVG-20010904/DTD/svg10.dtd">
<svg version="1.0" xmlns="http://www.w3.org/2000/svg"
 width="152.000000pt" height="152.000000pt" viewBox="0 0 152.000000 152.000000"
 preserveAspectRatio="xMidYMid meet">
<metadata>
Created by potrace 1.11, written by Peter Selinger 2001-2013
</metadata>
<g transform="translate(0.000000,152.000000) scale(0.100000,-0.100000)"
fill="#000000" stroke="none">
<path d="M700 1254 c-70 -25 -101 -44 -142 -87 -26 -27 -50 -58 -54 -69 -4
-13 -11 -17 -22 -13 -47 19 -121 21 -172 6 -83 -26 -179 -125 -196 -202 -6
-32 -7 -126 0 -137 3 -5 -7 -18 -22 -29 -15 -11 -41 -44 -57 -74 -69 -125 -16
-290 114 -352 46 -22 52 -22 596 -25 503 -2 553 -1 598 15 107 39 169 127 171
244 0 42 -4 72 -13 83 -7 9 -10 16 -7 16 11 0 -34 63 -62 87 -23 19 -25 28
-23 85 6 166 -123 303 -284 301 -20 0 -88 -13 -96 -19 -5 -3 -13 5 -18 18 -13
33 -80 108 -97 108 -8 0 -14 4 -14 8 0 22 -159 51 -200 36z"/>
</g>
</svg>
